<?xml version="1.0"?>
<svg xmlns="http://www.w3.org/2000/svg" id="Layer_1" enable-background="new 0 0 512.001 512.001" height="512px" viewBox="0 0 512.001 512.001" width="512px" class=""><g><g><path d="m304.515 174.313c-4.746-2.823-10.883-1.267-13.708 3.48-2.824 4.746-1.266 10.883 3.48 13.708 22.646 13.475 36.713 38.19 36.713 64.499 0 41.355-33.645 75-75 75s-75-33.645-75-75c0-26.307 14.065-51.02 36.708-64.496 4.746-2.825 6.303-8.962 3.479-13.708-2.825-4.746-8.964-6.303-13.708-3.479-28.669 17.064-46.479 48.363-46.479 81.683 0 52.383 42.617 95 95 95s95-42.617 95-95c0-33.324-17.812-64.624-46.485-81.687z" data-original="#000000" class="active-path" data-old_color="#000000" fill="#FFFFFF"/><path d="m473.183 256 37.762-75.528c1.55-3.1 1.384-6.781-.438-9.729s-5.041-4.743-8.506-4.743h-140.626c-3.789-8.097-10.888-14.366-19.612-17l-11.358-3.431-8.782-10.151c-6.742-7.929-16.939-12.06-27.302-11.035l-11.788 1.174-11.653-5.845c-9.344-4.957-20.473-4.952-29.819.033l-10.329 5.537-12.816-.927c-10.696-1.129-21.135 3.15-27.947 11.475l-7.538 9.205-10.688 3.548c-9.345 2.335-17.088 8.813-21.112 17.418h-140.631c-3.466 0-6.685 1.794-8.506 4.743-1.822 2.948-1.988 6.629-.438 9.729l37.762 75.527-37.762 75.528c-1.55 3.1-1.384 6.781.438 9.729 1.821 2.949 5.04 4.743 8.506 4.743h140.626c3.789 8.096 10.888 14.365 19.611 17l11.358 3.431 8.782 10.151c6.741 7.929 16.946 12.055 27.303 11.035l11.787-1.175 11.651 5.845c4.664 2.476 9.771 3.714 14.88 3.713 5.128 0 10.258-1.248 14.94-3.745l10.33-5.537 12.816.927c10.707 1.129 21.136-3.15 27.947-11.476l7.538-9.205 10.688-3.547c9.345-2.335 17.089-8.813 21.112-17.418h140.631c3.466 0 6.685-1.794 8.506-4.743 1.822-2.948 1.988-6.629.438-9.729zm-414.24 4.473c1.408-2.815 1.408-6.129 0-8.944l-32.763-65.529h114.297l-5.059 4.377c-7.928 6.742-12.054 16.943-11.035 27.303l1.174 11.787-5.846 11.653c-4.958 9.344-4.952 20.473.033 29.819l5.537 10.329-.927 12.816c-1.131 10.702 3.15 21.136 11.476 27.947l4.846 3.968h-114.496zm276.286 83.586c-.296.069-.59.152-.879.248l-13.831 4.59c-1.797.597-3.388 1.691-4.587 3.156l-9.376 11.451c-2.542 3.107-6.45 4.693-10.452 4.245-.131-.015-.264-.027-.396-.037l-15.887-1.149c-1.89-.133-3.777.266-5.445 1.16l-12.866 6.896c-3.46 1.846-7.597 1.837-11.064-.024-.081-.043-.163-.086-.246-.127l-14.355-7.201c-1.396-.7-2.932-1.062-4.484-1.062-.33 0-.661.016-.992.049l-14.659 1.461c-3.824.377-7.6-1.152-10.151-4.153l-10.733-12.407c-1.239-1.432-2.859-2.483-4.671-3.03l-14.134-4.27c-4.026-1.216-7.122-4.521-8.079-8.626-.069-.296-.152-.59-.248-.879l-4.59-13.831c-.597-1.797-1.691-3.388-3.156-4.587l-11.451-9.376c-3.108-2.543-4.695-6.45-4.245-10.452.015-.131.027-.264.037-.396l1.149-15.887c.136-1.888-.266-3.777-1.16-5.445l-6.896-12.866c-1.846-3.461-1.837-7.598.024-11.065.043-.081.085-.163.127-.245l7.201-14.355c.849-1.692 1.2-3.591 1.012-5.476l-1.46-14.659c-.376-3.825 1.152-7.599 4.153-10.151l12.407-10.733c1.432-1.239 2.483-2.859 3.03-4.671l3.367-11.145c.009-.028.017-.057.026-.085l.877-2.904c1.216-4.026 4.521-7.122 8.626-8.079.296-.069.59-.152.879-.248l13.831-4.591c1.797-.596 3.387-1.69 4.587-3.155l9.376-11.451c2.543-3.108 6.451-4.698 10.451-4.245.132.015.264.027.397.037l15.887 1.149c1.888.134 3.776-.266 5.445-1.16l12.866-6.896c3.461-1.845 7.597-1.837 11.065.024.081.043.163.086.245.127l14.355 7.201c1.692.849 3.592 1.203 5.475 1.012l14.66-1.46c3.82-.379 7.599 1.152 10.151 4.153l10.733 12.407c1.239 1.432 2.859 2.483 4.671 3.03l14.134 4.27c4.025 1.215 7.121 4.521 8.078 8.625.069.297.152.59.248.879l4.591 13.832c.596 1.797 1.69 3.388 3.155 4.587l11.451 9.376c3.108 2.543 4.695 6.45 4.245 10.451-.015.132-.027.264-.037.397l-1.149 15.887c-.136 1.888.266 3.776 1.16 5.445l6.896 12.866c1.846 3.461 1.837 7.598-.024 11.064-.043.081-.086.163-.127.246l-7.201 14.355c-.849 1.693-1.2 3.591-1.012 5.476l1.461 14.659c.376 3.825-1.152 7.599-4.153 10.151l-12.407 10.733c-1.432 1.239-2.483 2.859-3.03 4.671l-4.27 14.134c-1.215 4.026-4.521 7.122-8.626 8.079zm36.295-18.059 5.059-4.377c7.928-6.742 12.054-16.943 11.035-27.303l-1.175-11.787 5.845-11.651c4.959-9.344 4.954-20.473-.031-29.821l-5.537-10.33.927-12.816c1.131-10.7-3.149-21.135-11.475-27.947l-4.846-3.968h114.495l-32.762 65.528c-1.408 2.815-1.408 6.129 0 8.944l32.762 65.528z" data-original="#000000" class="active-path" data-old_color="#000000" fill="#FFFFFF"/><path d="m205.277 230.865c-3.466 3.334-5.427 7.818-5.52 12.627-.093 4.808 1.691 9.365 5.034 12.839l12.038 12.485-2.2 16.772c-.675 3.743-.136 7.663 1.532 11.088 2.107 4.328 5.774 7.576 10.325 9.146 1.926.665 3.913.995 5.892.995 2.696 0 5.378-.613 7.873-1.827l15.57-7.579 16.045 7.644c3.172 1.514 6.709 2.06 10.223 1.57 4.765-.658 8.988-3.133 11.892-6.969 2.903-3.835 4.139-8.571 3.478-13.35l-2.4-17.172 11.73-12.373c2.739-2.658 4.53-6.046 5.189-9.821.828-4.742-.241-9.522-3.008-13.46s-6.903-6.563-11.62-7.386l-17.065-3.023-8.485-15.608c-.001-.002-.002-.004-.003-.006-1.686-3.096-4.223-5.611-7.335-7.271-4.243-2.263-9.11-2.738-13.708-1.338-4.599 1.399-8.377 4.506-10.641 8.751l-8.148 15.294-17.094 3.176c-3.627.587-6.941 2.243-9.594 4.796zm35.076 10.811c2.992-.556 5.568-2.444 6.999-5.13l8.659-16.253 9.002 16.561c1.453 2.674 4.045 4.54 7.041 5.071l18.186 3.222-13.01 13.723c-2.094 2.208-3.068 5.25-2.647 8.265l2.555 18.28-17.063-8.129c-1.36-.648-2.831-.972-4.301-.972-1.498 0-2.996.336-4.376 1.008l-16.571 8.066 2.458-18.744c.396-3.018-.604-6.051-2.716-8.242l-12.796-13.272z" data-original="#000000" class="active-path" data-old_color="#000000" fill="#FFFFFF"/><path d="m256 181c5.523 0 10-4.477 10-10s-4.477-10-10-10h-.007c-5.523 0-9.996 4.477-9.996 10s4.481 10 10.003 10z" data-original="#000000" class="active-path" data-old_color="#000000" fill="#FFFFFF"/></g></g> </svg>
