<svg xmlns="http://www.w3.org/2000/svg" width="60" height="60" viewBox="0 0 60 60">
  <g id="warning-exclamation-sign-in-a-circle-with-verification-mark" transform="translate(-66 95)">
    <path id="Path_75" data-name="Path 75" d="M52.839,25.742A24.446,24.446,0,0,1,53.226,30a23.253,23.253,0,1,1-7.452-17.032l4.79-4.79A29.986,29.986,0,1,0,60,30a29.6,29.6,0,0,0-1.645-9.774Z" transform="translate(66 -95)" fill="#60c4cf"/>
    <path id="Path_76" data-name="Path 76" d="M83.214,25.034,82.5,24.32a2.042,2.042,0,0,0-2.888,2.888l3.024,3.024a2.115,2.115,0,0,0,1.461.612,2.031,2.031,0,0,0,1.461-.612l7.816-7.816a2.107,2.107,0,0,0,.1-2.888,2.033,2.033,0,0,0-2.956-.034l-5.607,5.539A1.19,1.19,0,0,1,83.214,25.034Z" transform="translate(31.225 -104.742)" fill="#666"/>
  </g>
</svg>
