<svg xmlns="http://www.w3.org/2000/svg" width="60" height="58.182" viewBox="0 0 60 58.182">
  <g id="Group_143" data-name="Group 143" transform="translate(-200 -253)">
    <g id="Ellipse_23" data-name="Ellipse 23" transform="translate(200 253)" fill="#fff" stroke="#b5b6b7" stroke-width="1" opacity="0.6">
      <ellipse cx="30" cy="29.091" rx="30" ry="29.091" stroke="none"/>
      <ellipse cx="30" cy="29.091" rx="29.5" ry="28.591" fill="none"/>
    </g>
    <g id="chicken" transform="translate(214 210.763)">
      <g id="Group_142" data-name="Group 142" transform="translate(0 58.237)">
        <path id="Path_95" data-name="Path 95" d="M31.53,79.476H29.977V77.417a12.114,12.114,0,0,0-12.1-12.1H16.686a14.007,14.007,0,0,1-3.451-2.349l-.994-1.194.028-.023a1.987,1.987,0,1,0-3.257-1.543q-.082-.014-.165-.022a1.987,1.987,0,1,0,1.089,3.506l.027-.023.994,1.194a3.513,3.513,0,0,1,.313.454H10.8a6.509,6.509,0,0,0-3.488,1.009,4.081,4.081,0,0,1-.7-.39l-1.257-.912.021-.029A1.987,1.987,0,1,0,1.841,64.3c-.055,0-.11.011-.166.019a1.987,1.987,0,1,0,1.92,3.129l.021-.029,1.257.912a3.143,3.143,0,0,1,.277.229,6.509,6.509,0,0,0-.89,3.293,8.57,8.57,0,0,0,4.664,7.621H6.246a.47.47,0,0,0,0,.939h.172l.512,1.28a1.977,1.977,0,0,0,1.845,1.249H28.986a1.977,1.977,0,0,0,1.845-1.249l.512-1.28h.188a.47.47,0,1,0,0-.939ZM12.338,65.317q-.061-.121-.121-.233l1.006-.837a14.646,14.646,0,0,0,1.582,1.07Zm-2.011-2.681a.47.47,0,0,0-.765.061,1.03,1.03,0,0,1-.226.273A1.047,1.047,0,1,1,9.471,61.5a.47.47,0,1,0,.722-.6,1.047,1.047,0,1,1,1.475.135,1.032,1.032,0,0,1-.31.172.47.47,0,0,0-.2.741l1.353,1.626.023.027-.834.694-.022-.028Zm-4.179,5.6.769-1.06a26.946,26.946,0,0,0,3.892,1.229c2.154.573,4.38,1.166,5.629,2.072a3.576,3.576,0,1,1-4.2,5.788c-1.248-.906-2.5-2.84-3.714-4.71A26.94,26.94,0,0,0,6.148,68.237ZM3.712,66.33a.47.47,0,0,0-.726.247A1.042,1.042,0,1,1,2.6,65.435a.47.47,0,1,0,.552-.76,1.047,1.047,0,1,1,1.463-.232,1.034,1.034,0,0,1-.258.243.47.47,0,0,0-.01.767L6.061,66.7l.029.021-.637.878-.029-.022ZM5.2,71.855a5.578,5.578,0,0,1,.619-2.562c.6.741,1.245,1.739,1.916,2.774,1.259,1.942,2.561,3.95,3.951,4.959a4.481,4.481,0,0,0,2.643.862,4.578,4.578,0,0,0,.718-.057,4.515,4.515,0,0,0,1.944-8.113c-1.39-1.009-3.7-1.624-5.939-2.219-.92-.245-1.814-.483-2.584-.734a5.581,5.581,0,0,1,2.331-.508h7.079A11.174,11.174,0,0,1,29.038,77.417v2.059H12.82A7.63,7.63,0,0,1,5.2,71.855Zm24.76,9.491a1.042,1.042,0,0,1-.972.658H8.775a1.042,1.042,0,0,1-.972-.658l-.372-.931h22.9Z" transform="translate(0 -58.237)" fill="#707070" stroke="#707070" stroke-width="0.3"/>
        <path id="Path_96" data-name="Path 96" d="M243.22,293.8a1.591,1.591,0,0,1-.23.254.47.47,0,1,0,.624.7,2.538,2.538,0,0,0,.366-.4,2.472,2.472,0,0,0,.475-1.464.47.47,0,0,0-.47-.469h0a.47.47,0,0,0-.469.47A1.538,1.538,0,0,1,243.22,293.8Z" transform="translate(-227.626 -277.754)" fill="#707070" stroke="#707070" stroke-width="0.3"/>
        <path id="Path_97" data-name="Path 97" d="M181.423,244.054a13.351,13.351,0,0,1,3.567,1.377.47.47,0,1,0,.552-.76,13.7,13.7,0,0,0-3.865-1.521.47.47,0,1,0-.253.9Z" transform="translate(-169.74 -231.553)" fill="#707070" stroke="#707070" stroke-width="0.3"/>
        <path id="Path_98" data-name="Path 98" d="M280.569,203.816a10.107,10.107,0,0,0-2.121-.225.47.47,0,0,0,0,.939,9.169,9.169,0,0,1,1.924.2.47.47,0,1,0,.2-.918Z" transform="translate(-260.571 -194.489)" fill="#707070" stroke="#707070" stroke-width="0.3"/>
        <path id="Path_99" data-name="Path 99" d="M343.253,217.909a.47.47,0,1,0-.4.851,9.245,9.245,0,0,1,4.2,3.958.47.47,0,1,0,.826-.447A10.19,10.19,0,0,0,343.253,217.909Z" transform="translate(-321.132 -207.868)" fill="#707070" stroke="#707070" stroke-width="0.3"/>
      </g>
    </g>
  </g>
</svg>
