<svg id="circular-chart-for-education" xmlns="http://www.w3.org/2000/svg" width="100" height="95.696" viewBox="0 0 100 95.696">
  <g id="Group_105" data-name="Group 105">
    <path id="Path_88" data-name="Path 88" d="M46.972,67.028a18.905,18.905,0,0,1-1.588-37.745V1.185A46.963,46.963,0,1,0,78.666,82.727L59.2,62.508A18.771,18.771,0,0,1,46.972,67.028Z" transform="translate(0 0.609)" fill="#57aeb8"/>
    <path id="Path_89" data-name="Path 89" d="M26.209,16.331A18.931,18.931,0,0,1,19.618,28.95L39.085,49.176A46.888,46.888,0,0,0,54.314,16.224Z" transform="translate(45.686 35.632)" fill="#ec7053"/>
    <path id="Path_90" data-name="Path 90" d="M34.987,47.615c0,.6-.04,1.188-.087,1.774L63,49.283c.02-.556.043-1.108.043-1.668A47.024,47.024,0,0,0,16.073.646c-.533,0-1.055.023-1.585.043V28.781c.519-.04,1.049-.077,1.585-.077A18.937,18.937,0,0,1,34.987,47.615Z" transform="translate(33.739 -0.646)" fill="#5fba8f"/>
  </g>
</svg>
