<?xml version="1.0"?>
<svg xmlns="http://www.w3.org/2000/svg" xmlns:xlink="http://www.w3.org/1999/xlink" version="1.1" id="Capa_1" x="0px" y="0px" viewBox="0 0 512 512" style="enable-background:new 0 0 512 512;" xml:space="preserve" width="512px" height="512px" class=""><g><g>
	<g>
		<path d="M405.338,113.824c13.292-4.849,24.17-9.576,29.549-13.559c11.932-8.837,19.707-21.792,21.894-36.477    c2.187-14.686-1.475-29.343-10.311-41.275c-8.837-11.932-21.791-19.707-36.477-21.894c-14.688-2.188-29.344,1.475-41.275,10.312    C355,21.091,326.244,64.045,307.165,93.908C295.997,77.58,277.232,66.841,256,66.841s-39.997,10.74-51.165,27.067    C185.756,64.045,157,21.091,143.282,10.93c-11.931-8.838-26.588-12.5-41.275-10.312c-14.686,2.187-27.64,9.963-36.477,21.894    c-8.837,11.932-12.499,26.589-10.311,41.275c2.188,14.686,9.963,27.64,21.894,36.477c5.378,3.984,16.257,8.709,29.549,13.559    H0.545v128.725h29.936V512h450.957V242.549h30.016V113.824H405.338z M386.536,34.986c4.464-3.307,9.757-5.043,15.213-5.043    c1.271,0,2.553,0.095,3.833,0.285c6.776,1.01,12.755,4.597,16.832,10.103c4.077,5.506,5.768,12.27,4.759,19.046    c-1.009,6.777-4.597,12.755-10.103,16.832c-7.452,5.519-42.564,17.112-81.019,28.071    C361.066,65.493,380.405,39.527,386.536,34.986z M256,96.777c12.249,0,22.907,6.917,28.29,17.047h-56.578    C233.093,103.693,243.752,96.777,256,96.777z M94.932,76.208c-5.506-4.077-9.094-10.055-10.103-16.831    c-1.01-6.777,0.681-13.54,4.759-19.046c4.077-5.505,10.056-9.094,16.832-10.103c1.281-0.191,2.562-0.285,3.833-0.285    c5.455,0,10.748,1.737,15.214,5.044c7.452,5.519,28.776,35.729,50.467,69.319C131.539,91.681,101.063,80.749,94.932,76.208z     M30.481,143.76h119.744v68.853H30.481V143.76z M180.162,482.064H60.417c0,0,0-239.515,0-239.515h119.744V482.064z     M180.162,143.76h150.827v68.853H180.162V143.76z M301.053,482.064h-90.955V242.549h90.955V482.064z M451.503,482.064H330.989    V242.549h120.514V482.064z M481.518,212.613H360.925V143.76h120.594V212.613z" data-original="#000000" class="active-path" data-old_color="#000000" fill="#8F96AC"/>
	</g>
</g></g> </svg>
