<svg xmlns="http://www.w3.org/2000/svg" width="60" height="58.182" viewBox="0 0 60 58.182">
  <g id="Group_141" data-name="Group 141" transform="translate(-288 -253)">
    <g id="Ellipse_24" data-name="Ellipse 24" transform="translate(288 253)" fill="#fff" stroke="#b5b6b7" stroke-width="1" opacity="0.6">
      <ellipse cx="30" cy="29.091" rx="30" ry="29.091" stroke="none"/>
      <ellipse cx="30" cy="29.091" rx="29.5" ry="28.591" fill="none"/>
    </g>
    <g id="chips" transform="translate(274.156 243.75)">
      <path id="Path_82" data-name="Path 82" d="M53.844,43.107c0-3.277-1.022-11.483-1.189-12.8l.627-2.053H34.4l.63,2.053c-.167,1.325-1.19,9.564-1.19,12.8A16.912,16.912,0,0,0,35,49.218L34.4,51.157H53.242L52.7,49.1A16.616,16.616,0,0,0,53.844,43.107ZM51.16,29.821l-.106.346.018.138H36.617l.018-.139-.106-.345H51.16ZM36.529,49.586l.144-.47-.074-.158H51.044l-.006.013.163.616H36.529Zm15.1-2.2h-15.6a15.548,15.548,0,0,1-.618-4.28c0-2.522.671-8.421,1.009-11.231H51.266c.338,2.8,1.007,8.68,1.007,11.231A15.188,15.188,0,0,1,51.629,47.387Z" fill="#707070"/>
      <path id="Path_83" data-name="Path 83" d="M58.928,59.852a.825.825,0,0,0-.066-.171l-.228-.426h-.476a1.108,1.108,0,0,0-.667.276,4.49,4.49,0,0,1-2.451.944h0a2.688,2.688,0,0,1-1.338-.357,7.886,7.886,0,0,0-3.671-1.048c-1.4,0-2.346.595-2.581,1.631a4.268,4.268,0,0,0,.831,3.471,4.809,4.809,0,0,0,3.988,1.669,2.316,2.316,0,0,0,.278-.02,19.74,19.74,0,0,0,2.072.122c2.426,0,3.974-.593,4.7-1.794C60.256,62.614,59.393,60.685,58.928,59.852Zm-9.421,3.339a2.674,2.674,0,0,1-.527-2.143c.086-.379.825-.409,1.05-.409a6.367,6.367,0,0,1,2.907.85,4.281,4.281,0,0,0,2.1.556h0a4.417,4.417,0,0,0,.583-.039,7.582,7.582,0,0,1-3.108,2.232l-.235-.027-.007.059h0A3.337,3.337,0,0,1,49.507,63.191Zm8.474.141c-.23.376-.858.891-2.572,1.013A16.951,16.951,0,0,0,58,61.63,2.121,2.121,0,0,1,57.981,63.332Z" transform="translate(-9.981 -22.751)" fill="#707070"/>
    </g>
  </g>
</svg>
